<?xml version="1.0" encoding="UTF-8" standalone="no"?>
<!DOCTYPE svg PUBLIC "-//W3C//DTD SVG 1.1//EN"
 "http://www.w3.org/Graphics/SVG/1.1/DTD/svg11.dtd">
<!-- Generated by graphviz version 2.40.1 (20161225.0304)
 -->
<!-- Title: %3 Pages: 1 -->
<svg width="204pt" height="207pt"
 viewBox="0.00 0.00 204.00 207.00" xmlns="http://www.w3.org/2000/svg" xmlns:xlink="http://www.w3.org/1999/xlink">
<g id="graph0" class="graph" transform="scale(1 1) rotate(0) translate(4 203)">
<title>%3</title>
<polygon fill="#ffffff" stroke="transparent" points="-4,4 -4,-203 200,-203 200,4 -4,4"/>
<g id="clust1" class="cluster">
<title>cluster_ann</title>
<polygon fill="none" stroke="#000000" stroke-dasharray="5,2" points="8,-8 8,-155 100,-155 100,-8 8,-8"/>
<text text-anchor="middle" x="54" y="-139.8" font-family="Times,serif" font-size="14.00" fill="#000000">ANN</text>
</g>
<g id="clust2" class="cluster">
<title>cluster_snn</title>
<polygon fill="none" stroke="#000000" stroke-dasharray="5,2" points="108,-8 108,-155 188,-155 188,-8 108,-8"/>
<text text-anchor="middle" x="148" y="-139.8" font-family="Times,serif" font-size="14.00" fill="#000000">SNN</text>
</g>
<!-- Volr compiler -->
<g id="node1" class="node">
<title>Volr compiler</title>
<ellipse fill="none" stroke="#000000" cx="101" cy="-181" rx="61.1893" ry="18"/>
<text text-anchor="middle" x="101" y="-177.3" font-family="Times,serif" font-size="14.00" fill="#000000">Volr compiler</text>
</g>
<!-- Futhark -->
<g id="node3" class="node">
<title>Futhark</title>
<ellipse fill="none" stroke="#000000" cx="54" cy="-106" rx="38.1938" ry="18"/>
<text text-anchor="middle" x="54" y="-102.3" font-family="Times,serif" font-size="14.00" fill="#000000">Futhark</text>
</g>
<!-- Volr compiler&#45;&#45;Futhark -->
<g id="edge4" class="edge">
<title>Volr compiler&#45;&#45;Futhark</title>
<path fill="none" stroke="#000000" d="M89.8617,-163.226C82.3152,-151.1838 72.3912,-135.3476 64.8963,-123.3876"/>
</g>
<!-- PyNN0 -->
<g id="node5" class="node">
<title>PyNN0</title>
<ellipse fill="none" stroke="#000000" cx="148" cy="-106" rx="32.4942" ry="18"/>
<text text-anchor="middle" x="148" y="-102.3" font-family="Times,serif" font-size="14.00" fill="#000000">PyNN</text>
</g>
<!-- Volr compiler&#45;&#45;PyNN0 -->
<g id="edge3" class="edge">
<title>Volr compiler&#45;&#45;PyNN0</title>
<path fill="none" stroke="#000000" d="M112.1383,-163.226C119.7391,-151.0972 129.7518,-135.1195 137.2651,-123.1301"/>
</g>
<!-- OpenCL -->
<g id="node2" class="node">
<title>OpenCL</title>
<polygon fill="none" stroke="#000000" points="85.5,-52 22.5,-52 22.5,-16 85.5,-16 85.5,-52"/>
<text text-anchor="middle" x="54" y="-30.3" font-family="Times,serif" font-size="14.00" fill="#000000">OpenCL</text>
</g>
<!-- Futhark&#45;&#45;OpenCL -->
<g id="edge1" class="edge">
<title>Futhark&#45;&#45;OpenCL</title>
<path fill="none" stroke="#000000" d="M54,-87.8314C54,-77 54,-63.2876 54,-52.4133"/>
</g>
<!-- NEST -->
<g id="node4" class="node">
<title>NEST</title>
<polygon fill="none" stroke="#000000" points="175,-52 121,-52 121,-16 175,-16 175,-52"/>
<text text-anchor="middle" x="148" y="-30.3" font-family="Times,serif" font-size="14.00" fill="#000000">NEST</text>
</g>
<!-- PyNN0&#45;&#45;NEST -->
<g id="edge2" class="edge">
<title>PyNN0&#45;&#45;NEST</title>
<path fill="none" stroke="#000000" d="M148,-87.8314C148,-77 148,-63.2876 148,-52.4133"/>
</g>
</g>
</svg>
