<?xml version="1.0" encoding="UTF-8" standalone="no"?>
<!DOCTYPE svg PUBLIC "-//W3C//DTD SVG 1.1//EN"
 "http://www.w3.org/Graphics/SVG/1.1/DTD/svg11.dtd">
<!-- Generated by graphviz version 2.40.1 (20161225.0304)
 -->
<!-- Title: %3 Pages: 1 -->
<svg width="174pt" height="188pt"
 viewBox="0.00 0.00 174.45 188.00" xmlns="http://www.w3.org/2000/svg" xmlns:xlink="http://www.w3.org/1999/xlink">
<g id="graph0" class="graph" transform="scale(1 1) rotate(0) translate(4 184)">
<title>%3</title>
<polygon fill="#ffffff" stroke="transparent" points="-4,4 -4,-184 170.4458,-184 170.4458,4 -4,4"/>
<!-- .py -->
<g id="node1" class="node">
<title>.py</title>
<polygon fill="none" stroke="#000000" points="140,-36 92,-36 92,0 146,0 146,-30 140,-36"/>
<polyline fill="none" stroke="#000000" points="140,-36 140,-30 "/>
<polyline fill="none" stroke="#000000" points="146,-30 140,-30 "/>
<text text-anchor="middle" x="119" y="-14.3" font-family="Times,serif" font-size="14.00" fill="#000000">.py</text>
</g>
<!-- .fut -->
<g id="node2" class="node">
<title>.fut</title>
<polygon fill="none" stroke="#000000" points="48,-108 0,-108 0,-72 54,-72 54,-102 48,-108"/>
<polyline fill="none" stroke="#000000" points="48,-108 48,-102 "/>
<polyline fill="none" stroke="#000000" points="54,-102 48,-102 "/>
<text text-anchor="middle" x="27" y="-86.3" font-family="Times,serif" font-size="14.00" fill="#000000">.fut</text>
</g>
<!-- DSL AST -->
<g id="node3" class="node">
<title>DSL AST</title>
<ellipse fill="none" stroke="#000000" cx="73" cy="-162" rx="46.2923" ry="18"/>
<text text-anchor="middle" x="73" y="-158.3" font-family="Times,serif" font-size="14.00" fill="#000000">DSL AST</text>
</g>
<!-- DSL AST&#45;&#45;.fut -->
<g id="edge3" class="edge">
<title>DSL AST&#45;&#45;.fut</title>
<path fill="none" stroke="#000000" d="M61.6292,-144.2022C54.6054,-133.2085 45.6181,-119.1413 38.5595,-108.0931"/>
</g>
<!-- SNN AST -->
<g id="node4" class="node">
<title>SNN AST</title>
<ellipse fill="none" stroke="#000000" cx="119" cy="-90" rx="47.3916" ry="18"/>
<text text-anchor="middle" x="119" y="-86.3" font-family="Times,serif" font-size="14.00" fill="#000000">SNN AST</text>
</g>
<!-- DSL AST&#45;&#45;SNN AST -->
<g id="edge1" class="edge">
<title>DSL AST&#45;&#45;SNN AST</title>
<path fill="none" stroke="#000000" d="M84.3708,-144.2022C91.501,-133.0419 100.6547,-118.7143 107.76,-107.593"/>
</g>
<!-- SNN AST&#45;&#45;.py -->
<g id="edge2" class="edge">
<title>SNN AST&#45;&#45;.py</title>
<path fill="none" stroke="#000000" d="M119,-71.8314C119,-61 119,-47.2876 119,-36.4133"/>
</g>
</g>
</svg>
